:SAMPLES-PER-SECOND 30
:FULLY-SPECIFIED
:DEGREES
477
root  6.81742 37.571 2.20134 -175.9 -83.7404 165.676
RightUpLeg  -6.62433 6.5426 -23.0501
RightLeg  22.3108 -4.38453 -2.12903
RightFoot  -1.15594 -0.85534 9.55663
RightToes  1.16414e-010 0 -3.6325e-017
Spine  12.2828 1.32661 -3.83379
Spine1  0.727256 0.34969 0.0696548
HEad  -9.58867 5.10065 -0.438305
LeftShoulder1  1.3086 -1.48841 -19.7235
LeftArm  -28.8679 22.9006 -54.2246
LeftForeArm  -77.2133 -14.7766 -6.06054
LeftHand  1.10593 13.729 15.844
RightShoulder  1.75197 2.4979 23.0408
RightArm  -14.423 -22.8772 49.9886
RightForeArm  -34.8587 38.1451 10.5499
RightHand  -0.345377 -2.47449 -12.8901
LeftUpLeg  7.44663 -7.82323 11.2093
LeftLeg  24.1453 2.7817 1.70951
LeftFoot  -19.278 -1.39574 -21.5323
LeftToes  7.09373e-011 9.9627e-011 8.96859e-012
478
root  6.55018 37.6118 1.28801 -171.266 -88.5104 161.886
RightUpLeg  -3.35872 2.82332 -20.4157
RightLeg  19.3905 -5.25159 -2.26079
RightFoot  -2.47992 -1.02863 13.1192
RightToes  1.16414e-010 0 -3.6325e-017
Spine  11.9323 0.82048 -3.36526
Spine1  0.47931 -0.17221 2.06165
HEad  -10.4139 2.00824 0.514069
LeftShoulder1  1.16679 -1.07439 -18.9398
LeftArm  -36.2957 22.3771 -51.4118
LeftForeArm  -81.6426 -23.1915 -6.36405
LeftHand  1.45445 13.3716 21.1486
RightShoulder  1.71594 2.32621 23.2966
RightArm  -24.4049 -28.074 45.1851
RightForeArm  -42.2702 42.2267 12.2634
RightHand  -0.499128 -3.58819 -29.4599
LeftUpLeg  5.7734 -10.2456 15.0494
LeftLeg  23.2565 0.9261 0.778834
LeftFoot  -18.298 -1.23484 -21.8775
LeftToes  7.09373e-011 9.9627e-011 8.96859e-012
479
root  6.33448 37.5733 0.255331 60.5636 -86.6723 -69.4439
RightUpLeg  -1.71857 -0.811484 -17.0981
RightLeg  20.2466 -6.37821 -2.81191
RightFoot  -5.18404 -0.961498 17.0646
RightToes  1.16414e-010 0 -3.6325e-017
Spine  11.9853 0.295488 -1.16846
Spine1  0.490124 -0.249133 2.10136
HEad  -12.0338 -0.726781 1.58149
LeftShoulder1  1.03871 -0.740577 -17.8426
LeftArm  -43.2558 20.9171 -48.1129
LeftForeArm  -75.6336 -34.8052 -10.197
LeftHand  1.48869 12.0788 25.5018
RightShoulder  1.67073 2.21008 23.0954
RightArm  -32.1762 -33.125 41.1432
RightForeArm  -40.7557 48.3624 14.8776
RightHand  -1.23566 -2.14921 -42.9009
LeftUpLeg  3.55184 -13.132 19.4237
LeftLeg  23.6094 -0.642457 0.0138047
LeftFoot  -16.7973 -1.05616 -24.0856
LeftToes  7.09373e-011 9.9627e-011 8.96859e-012
480
root  6.22916 37.4576 -0.789 40.6346 -83.7257 -49.5947
RightUpLeg  -1.5327 -2.94311 -14.0458
RightLeg  22.6732 -6.80495 -3.32703
RightFoot  -6.53573 -0.871578 19.4492
RightToes  1.16414e-010 0 -3.6325e-017
Spine  12.8001 -0.310426 1.4418
Spine1  0.730401 -0.194086 1.0043
HEad  -14.6752 -2.28647 2.64896
LeftShoulder1  0.912531 -0.434535 -16.4272
LeftArm  -45.351 19.073 -45.0646
LeftForeArm  -64.6732 -48.9969 -15.6956
LeftHand  1.34962 10.5509 29.6242
RightShoulder  1.70605 2.36572 22.9102
RightArm  -37.1016 -37.3129 37.2974
RightForeArm  -28.5715 57.4803 20.1352
RightHand  -2.29491 -0.242734 -49.3968
LeftUpLeg  0.495275 -14.5417 23.2579
LeftLeg  26.6772 1.19646 1.02096
LeftFoot  -13.6559 -0.450184 -25.8256
LeftToes  7.09373e-011 9.9627e-011 8.96859e-012
481
root  6.23762 37.3935 -1.74483 35.3671 -82.4821 -44.6748
RightUpLeg  -2.48641 -4.46026 -12.4952
RightLeg  25.7576 -6.66509 -3.71455
RightFoot  -6.73986 -0.812024 18.8816
RightToes  1.16414e-010 0 -3.6325e-017
Spine  14.2866 -0.840733 2.43116
Spine1  0.862018 -0.287744 -0.262236
HEad  -17.8346 -2.30452 3.18406
LeftShoulder1  0.802686 -0.201266 -14.7856
LeftArm  -46.1288 18.172 -42.4923
LeftForeArm  -42.6604 -63.9848 -27.719
LeftHand  0.993451 8.82206 32.3851
RightShoulder  1.72071 2.54609 22.2431
RightArm  -39.2177 -39.5417 34.0036
RightForeArm  -3.63532 69.497 34.6688
RightHand  -2.62104 0.392736 -49.7372
LeftUpLeg  -3.32065 -11.8928 24.7366
LeftLeg  32.8356 7.35301 5.53948
LeftFoot  -7.91905 0.686822 -22.5574
LeftToes  7.09373e-011 9.9627e-011 8.96859e-012
482
root  6.31545 37.3721 -2.52225 28.1394 -83.1951 -37.7215
RightUpLeg  -3.94573 -5.3022 -12.578
RightLeg  28.7785 -6.2674 -3.94694
RightFoot  -7.49886 -0.640082 17.422
RightToes  1.16414e-010 0 -3.6325e-017
Spine  16.126 -1.10948 1.83514
Spine1  0.390697 -0.437213 -1.40229
HEad  -20.5548 -1.15978 2.56464
LeftShoulder1  0.737153 -0.137173 -13.235
LeftArm  -45.7277 18.8467 -40.0167
LeftForeArm  5.24374 -76.1078 -62.1128
LeftHand  0.483867 7.03353 32.6998
RightShoulder  1.56236 2.34433 20.3721
RightArm  -38.8901 -38.9218 31.9417
RightForeArm  55.3403 78.4818 83.0801
RightHand  -2.23584 -0.132621 -46.9604
LeftUpLeg  -7.65268 -5.70881 23.2755
LeftLeg  42.1011 13.1104 12.7686
LeftFoot  -2.4502 1.21321 -15.0973
LeftToes  7.09373e-011 9.9627e-011 8.96859e-012
483
root  6.39781 37.3501 -3.06161 22.3493 -84.8398 -32.1464
RightUpLeg  -5.1586 -4.95382 -13.1541
RightLeg  30.7693 -5.694 -3.88845
RightFoot  -8.65234 -0.463125 17.1169
RightToes  1.16414e-010 0 -3.6325e-017
Spine  17.8483 -1.16547 1.36701
Spine1  -0.595678 -0.449809 -2.50398
HEad  -22.2591 0.225538 0.800545
LeftShoulder1  0.744491 -0.332487 -12.3039
LeftArm  -43.6669 20.2334 -37.1044
LeftForeArm  85.6477 -75.4274 -126.697
LeftHand  0.19294 6.05822 31.885
RightShoulder  1.29746 1.81694 17.8765
RightArm  -36.2978 -35.4013 30.7904
RightForeArm  124.644 73.1524 141.111
RightHand  -1.78821 -0.540554 -41.1722
LeftUpLeg  -11.7682 1.08207 20.5047
LeftLeg  52.2572 13.0062 17.6367
LeftFoot  -1.53856 0.970108 -11.1158
LeftToes  7.09373e-011 9.9627e-011 8.96859e-012
